<mxfile host="Electron" agent="Mozilla/5.0 (Macintosh; Intel Mac OS X 10_15_7) AppleWebKit/537.36 (KHTML, like Gecko) draw.io/24.7.17 Chrome/128.0.6613.36 Electron/32.0.1 Safari/537.36" version="24.7.17">
  <diagram id="OoCswDzEAbEhY5i_VbBE" name="第 1 页">
    <mxGraphModel dx="1663" dy="2030" grid="1" gridSize="10" guides="0" tooltips="1" connect="1" arrows="1" fold="1" page="0" pageScale="1" pageWidth="1600" pageHeight="1200" background="none" math="0" shadow="0">
      <root>
        <mxCell id="0" />
        <mxCell id="1" parent="0" />
        <mxCell id="auE9GAFZoPiCodi1esT8-11" value="" style="rounded=1;whiteSpace=wrap;html=1;dashed=1;strokeWidth=2;absoluteArcSize=1;" parent="1" vertex="1">
          <mxGeometry x="1930" y="-570" width="310" height="100" as="geometry" />
        </mxCell>
        <mxCell id="pD3apOntTS_DSW2_lvJ2-11" value="" style="rounded=1;whiteSpace=wrap;html=1;dashed=1;strokeWidth=2;absoluteArcSize=1;" parent="1" vertex="1">
          <mxGeometry x="1440" y="-570" width="310" height="219" as="geometry" />
        </mxCell>
        <mxCell id="auE9GAFZoPiCodi1esT8-14" style="rounded=0;orthogonalLoop=1;jettySize=auto;html=1;exitX=1;exitY=0.25;exitDx=0;exitDy=0;strokeWidth=2;dashed=1;elbow=vertical;edgeStyle=elbowEdgeStyle;" parent="1" source="bMvW-eNj-eisWk0p-jTL-32" target="bMvW-eNj-eisWk0p-jTL-17" edge="1">
          <mxGeometry relative="1" as="geometry">
            <mxPoint x="1760" y="-149.9999999999999" as="sourcePoint" />
            <mxPoint x="1920" y="-72.49999999999989" as="targetPoint" />
          </mxGeometry>
        </mxCell>
        <mxCell id="bMvW-eNj-eisWk0p-jTL-32" value="&lt;div&gt;&lt;br&gt;&lt;/div&gt;&lt;div&gt;&lt;br&gt;&lt;/div&gt;" style="rounded=1;whiteSpace=wrap;html=1;strokeWidth=2;dashed=1;glass=0;shadow=0;imageAspect=1;imageWidth=24;imageHeight=26;arcSize=20;absoluteArcSize=1;" parent="1" vertex="1">
          <mxGeometry x="1098" y="-230" width="652" height="330" as="geometry" />
        </mxCell>
        <mxCell id="bMvW-eNj-eisWk0p-jTL-17" value="" style="rounded=1;whiteSpace=wrap;html=1;dashed=1;strokeWidth=2;absoluteArcSize=1;" parent="1" vertex="1">
          <mxGeometry x="1930" y="-370" width="310" height="471" as="geometry" />
        </mxCell>
        <mxCell id="bMvW-eNj-eisWk0p-jTL-54" style="edgeStyle=orthogonalEdgeStyle;rounded=0;orthogonalLoop=1;jettySize=auto;html=1;exitX=0.25;exitY=0;exitDx=0;exitDy=0;entryX=0;entryY=0.25;entryDx=0;entryDy=0;strokeWidth=2;dashed=1;" parent="1" source="bMvW-eNj-eisWk0p-jTL-32" target="pD3apOntTS_DSW2_lvJ2-11" edge="1">
          <mxGeometry relative="1" as="geometry" />
        </mxCell>
        <mxCell id="auE9GAFZoPiCodi1esT8-5" style="rounded=0;orthogonalLoop=1;jettySize=auto;html=1;exitX=0.5;exitY=1;exitDx=0;exitDy=0;entryX=0.5;entryY=0;entryDx=0;entryDy=0;strokeWidth=2;edgeStyle=elbowEdgeStyle;" parent="1" source="bMvW-eNj-eisWk0p-jTL-1" target="auE9GAFZoPiCodi1esT8-2" edge="1">
          <mxGeometry relative="1" as="geometry" />
        </mxCell>
        <mxCell id="auE9GAFZoPiCodi1esT8-7" style="rounded=0;orthogonalLoop=1;jettySize=auto;html=1;exitX=1;exitY=0.5;exitDx=0;exitDy=0;entryX=-0.003;entryY=0.319;entryDx=0;entryDy=0;strokeWidth=2;edgeStyle=elbowEdgeStyle;entryPerimeter=0;" parent="1" target="auE9GAFZoPiCodi1esT8-1" edge="1">
          <mxGeometry relative="1" as="geometry">
            <mxPoint x="1369" y="-110" as="sourcePoint" />
            <mxPoint x="1500" y="6" as="targetPoint" />
          </mxGeometry>
        </mxCell>
        <mxCell id="bMvW-eNj-eisWk0p-jTL-1" value="&lt;b&gt;&lt;font style=&quot;font-size: 20px;&quot;&gt;Controller&lt;/font&gt;&lt;/b&gt;&lt;div&gt;&lt;div&gt;&lt;span style=&quot;font-family: Verdana;&quot;&gt;loginAdmin()&lt;/span&gt;&lt;font face=&quot;Verdana&quot;&gt;&lt;br&gt;&lt;/font&gt;&lt;/div&gt;&lt;div&gt;&lt;font face=&quot;Verdana&quot;&gt;loginAttendee()&lt;/font&gt;&lt;/div&gt;&lt;div&gt;&lt;font face=&quot;Verdana&quot;&gt;registerAttendee()&lt;/font&gt;&lt;/div&gt;&lt;/div&gt;" style="rounded=1;whiteSpace=wrap;html=1;fillColor=#f8cecc;strokeColor=#b85450;absoluteArcSize=1;" parent="1" vertex="1">
          <mxGeometry x="1119" y="-202" width="250" height="132" as="geometry" />
        </mxCell>
        <mxCell id="bMvW-eNj-eisWk0p-jTL-2" value="&lt;font style=&quot;font-size: 20px;&quot;&gt;&lt;b&gt;View&lt;/b&gt;&lt;/font&gt;&lt;div&gt;&lt;font style=&quot;font-size: 20px;&quot;&gt;&lt;div style=&quot;font-size: 12px;&quot;&gt;&lt;span style=&quot;font-family: Verdana; background-color: initial;&quot;&gt;displayTable()&lt;/span&gt;&lt;br&gt;&lt;/div&gt;&lt;div style=&quot;font-size: 12px;&quot;&gt;&lt;font face=&quot;Verdana&quot;&gt;displayError()&lt;/font&gt;&lt;/div&gt;&lt;div style=&quot;font-size: 12px;&quot;&gt;&lt;font face=&quot;Verdana&quot;&gt;displayBadInput()&lt;/font&gt;&lt;/div&gt;&lt;div style=&quot;font-size: 12px;&quot;&gt;&lt;font face=&quot;Verdana&quot;&gt;...&lt;/font&gt;&lt;/div&gt;&lt;/font&gt;&lt;/div&gt;" style="rounded=1;whiteSpace=wrap;html=1;fillColor=#d5e8d4;strokeColor=#82b366;absoluteArcSize=1;" parent="1" vertex="1">
          <mxGeometry x="1470" y="-530" width="250" height="130" as="geometry" />
        </mxCell>
        <mxCell id="bMvW-eNj-eisWk0p-jTL-26" style="rounded=0;orthogonalLoop=1;jettySize=auto;html=1;exitX=1;exitY=0.25;exitDx=0;exitDy=0;strokeWidth=2;edgeStyle=elbowEdgeStyle;elbow=vertical;" parent="1" source="bMvW-eNj-eisWk0p-jTL-1" edge="1">
          <mxGeometry relative="1" as="geometry">
            <mxPoint x="1500" y="-170" as="targetPoint" />
          </mxGeometry>
        </mxCell>
        <mxCell id="bMvW-eNj-eisWk0p-jTL-3" value="&lt;font style=&quot;font-size: 20px;&quot;&gt;&lt;b&gt;Admin&lt;/b&gt;&lt;/font&gt;&lt;div&gt;&lt;span style=&quot;font-family: Verdana; background-color: initial;&quot;&gt;AdminEditBanquet&lt;/span&gt;&lt;br&gt;&lt;/div&gt;&lt;div&gt;&lt;font face=&quot;Verdana&quot;&gt;AdminNewBanquet&lt;/font&gt;&lt;/div&gt;&lt;div&gt;&lt;font face=&quot;Verdana&quot;&gt;AdminViewBanquet&lt;/font&gt;&lt;/div&gt;&lt;div&gt;&lt;font face=&quot;Verdana&quot;&gt;...&lt;/font&gt;&lt;/div&gt;" style="rounded=1;whiteSpace=wrap;html=1;fillColor=#f8cecc;strokeColor=#b85450;absoluteArcSize=1;" parent="1" vertex="1">
          <mxGeometry x="1500" y="-200" width="230" height="120" as="geometry" />
        </mxCell>
        <mxCell id="bMvW-eNj-eisWk0p-jTL-4" value="&lt;div style=&quot;&quot;&gt;&lt;font style=&quot;font-size: 20px;&quot;&gt;&lt;b&gt;DBConnect&lt;/b&gt;&lt;/font&gt;&lt;/div&gt;&lt;div style=&quot;&quot;&gt;&lt;font face=&quot;Verdana&quot;&gt;executeUpdate&lt;/font&gt;&lt;/div&gt;&lt;div style=&quot;&quot;&gt;&lt;font face=&quot;Verdana&quot;&gt;executeQuery&lt;/font&gt;&lt;/div&gt;&lt;div style=&quot;&quot;&gt;&lt;font face=&quot;Verdana&quot;&gt;closeConnection&lt;/font&gt;&lt;/div&gt;" style="rounded=1;whiteSpace=wrap;html=1;fillColor=#dae8fc;strokeColor=#6c8ebf;absoluteArcSize=1;" parent="1" vertex="1">
          <mxGeometry x="1960" y="-340" width="250" height="110" as="geometry" />
        </mxCell>
        <mxCell id="bMvW-eNj-eisWk0p-jTL-12" value="&lt;b&gt;&lt;font style=&quot;font-size: 20px;&quot;&gt;Tables&lt;/font&gt;&lt;/b&gt;&lt;div&gt;&lt;span style=&quot;font-family: Verdana; background-color: initial;&quot;&gt;query()&lt;/span&gt;&lt;/div&gt;&lt;div&gt;&lt;font face=&quot;Verdana&quot;&gt;delete()&lt;/font&gt;&lt;/div&gt;&lt;div style=&quot;&quot;&gt;&lt;font face=&quot;Verdana&quot;&gt;insert()&lt;/font&gt;&lt;/div&gt;&lt;div style=&quot;&quot;&gt;&lt;font face=&quot;Verdana&quot;&gt;...&lt;/font&gt;&lt;/div&gt;" style="rounded=1;whiteSpace=wrap;html=1;fillColor=#dae8fc;strokeColor=#6c8ebf;absoluteArcSize=1;" parent="1" vertex="1">
          <mxGeometry x="1960" y="-33" width="250" height="103" as="geometry" />
        </mxCell>
        <mxCell id="bMvW-eNj-eisWk0p-jTL-29" value="&lt;font style=&quot;font-size: 19px;&quot;&gt;Service&lt;/font&gt;" style="text;html=1;align=center;verticalAlign=middle;whiteSpace=wrap;rounded=0;" parent="1" vertex="1">
          <mxGeometry x="1940" y="-400" width="60" height="30" as="geometry" />
        </mxCell>
        <mxCell id="bMvW-eNj-eisWk0p-jTL-31" value="&lt;font style=&quot;font-size: 14px;&quot;&gt;loginAdmin&lt;/font&gt;&lt;font style=&quot;font-size: 16px;&quot;&gt;()&lt;/font&gt;" style="text;html=1;align=center;verticalAlign=middle;resizable=0;points=[];autosize=1;strokeColor=none;fillColor=none;rotation=0;" parent="1" vertex="1">
          <mxGeometry x="1384" y="-200" width="100" height="30" as="geometry" />
        </mxCell>
        <mxCell id="bMvW-eNj-eisWk0p-jTL-34" value="&lt;font style=&quot;font-size: 19px;&quot;&gt;Controller&lt;/font&gt;" style="text;html=1;align=center;verticalAlign=middle;whiteSpace=wrap;rounded=0;" parent="1" vertex="1">
          <mxGeometry x="1116" y="-264" width="60" height="30" as="geometry" />
        </mxCell>
        <mxCell id="pD3apOntTS_DSW2_lvJ2-6" style="edgeStyle=orthogonalEdgeStyle;rounded=0;orthogonalLoop=1;jettySize=auto;html=1;exitX=0.5;exitY=1;exitDx=0;exitDy=0;" parent="1" source="bMvW-eNj-eisWk0p-jTL-32" target="bMvW-eNj-eisWk0p-jTL-32" edge="1">
          <mxGeometry relative="1" as="geometry" />
        </mxCell>
        <mxCell id="pD3apOntTS_DSW2_lvJ2-12" value="&lt;font style=&quot;font-size: 19px;&quot;&gt;View&lt;/font&gt;" style="text;html=1;align=center;verticalAlign=middle;whiteSpace=wrap;rounded=0;" parent="1" vertex="1">
          <mxGeometry x="1440" y="-600" width="60" height="30" as="geometry" />
        </mxCell>
        <mxCell id="auE9GAFZoPiCodi1esT8-1" value="&lt;font style=&quot;font-size: 20px;&quot;&gt;&lt;b&gt;Attendee&lt;/b&gt;&lt;/font&gt;&lt;div&gt;&lt;span style=&quot;font-family: Verdana; background-color: initial;&quot;&gt;AttendeeMainMenu&lt;/span&gt;&lt;br&gt;&lt;/div&gt;&lt;div&gt;&lt;span style=&quot;font-family: Verdana; background-color: initial;&quot;&gt;AttendeeShowBanquet&lt;/span&gt;&lt;/div&gt;&lt;div&gt;&lt;font face=&quot;Verdana&quot;&gt;AttendeeSignUp&lt;/font&gt;&lt;/div&gt;&lt;div&gt;&lt;font face=&quot;Verdana&quot;&gt;...&lt;/font&gt;&lt;/div&gt;" style="rounded=1;whiteSpace=wrap;html=1;fillColor=#f8cecc;strokeColor=#b85450;absoluteArcSize=1;" parent="1" vertex="1">
          <mxGeometry x="1500" y="-50" width="230" height="120" as="geometry" />
        </mxCell>
        <mxCell id="auE9GAFZoPiCodi1esT8-6" style="rounded=0;orthogonalLoop=1;jettySize=auto;html=1;exitX=1;exitY=0.5;exitDx=0;exitDy=0;entryX=0.003;entryY=0.647;entryDx=0;entryDy=0;strokeWidth=2;entryPerimeter=0;edgeStyle=elbowEdgeStyle;elbow=vertical;" parent="1" source="auE9GAFZoPiCodi1esT8-2" target="auE9GAFZoPiCodi1esT8-1" edge="1">
          <mxGeometry relative="1" as="geometry" />
        </mxCell>
        <mxCell id="auE9GAFZoPiCodi1esT8-2" value="&lt;font style=&quot;font-size: 20px;&quot;&gt;&lt;b&gt;Register&lt;/b&gt;&lt;/font&gt;&lt;div&gt;&lt;font face=&quot;Verdana&quot;&gt;Registers a new&amp;nbsp;&lt;/font&gt;&lt;/div&gt;&lt;div&gt;&lt;font face=&quot;Verdana&quot;&gt;attendee account&lt;/font&gt;&lt;/div&gt;" style="rounded=1;whiteSpace=wrap;html=1;fillColor=#f8cecc;strokeColor=#b85450;absoluteArcSize=1;" parent="1" vertex="1">
          <mxGeometry x="1120" y="-13" width="250" height="80" as="geometry" />
        </mxCell>
        <mxCell id="auE9GAFZoPiCodi1esT8-4" value="&lt;span style=&quot;font-size: 14px;&quot;&gt;registerAttendee()&lt;/span&gt;" style="text;html=1;align=center;verticalAlign=middle;resizable=0;points=[];autosize=1;strokeColor=none;fillColor=default;rotation=0;fillStyle=solid;" parent="1" vertex="1">
          <mxGeometry x="1180" y="-60" width="140" height="30" as="geometry" />
        </mxCell>
        <mxCell id="auE9GAFZoPiCodi1esT8-13" style="rounded=0;orthogonalLoop=1;jettySize=auto;html=1;exitX=0.5;exitY=0;exitDx=0;exitDy=0;entryX=0.5;entryY=1;entryDx=0;entryDy=0;strokeWidth=1.5;" parent="1" source="auE9GAFZoPiCodi1esT8-8" target="bMvW-eNj-eisWk0p-jTL-4" edge="1">
          <mxGeometry relative="1" as="geometry" />
        </mxCell>
        <mxCell id="auE9GAFZoPiCodi1esT8-8" value="&lt;b&gt;&lt;font style=&quot;font-size: 20px;&quot;&gt;Attributes&lt;/font&gt;&lt;/b&gt;&lt;div&gt;&lt;font face=&quot;Verdana&quot;&gt;updateTo()&lt;/font&gt;&lt;/div&gt;&lt;div&gt;&lt;font face=&quot;Verdana&quot;&gt;inputNewVal()&lt;/font&gt;&lt;/div&gt;&lt;div&gt;&lt;font face=&quot;Verdana&quot;&gt;inputHasVal()&lt;/font&gt;&lt;/div&gt;&lt;div&gt;&lt;font face=&quot;Verdana&quot;&gt;...&lt;/font&gt;&lt;/div&gt;" style="rounded=1;whiteSpace=wrap;html=1;fillColor=#dae8fc;strokeColor=#6c8ebf;absoluteArcSize=1;" parent="1" vertex="1">
          <mxGeometry x="1960" y="-154" width="250" height="103" as="geometry" />
        </mxCell>
        <mxCell id="auE9GAFZoPiCodi1esT8-10" value="" style="image;aspect=fixed;html=1;points=[];align=center;fontSize=12;image=img/lib/azure2/databases/SQL_Server_Registries.svg;" parent="1" vertex="1">
          <mxGeometry x="2056" y="-555" width="72.39" height="66" as="geometry" />
        </mxCell>
        <mxCell id="auE9GAFZoPiCodi1esT8-12" value="&lt;font style=&quot;font-size: 19px;&quot;&gt;Database&lt;/font&gt;" style="text;html=1;align=center;verticalAlign=middle;whiteSpace=wrap;rounded=0;" parent="1" vertex="1">
          <mxGeometry x="1942" y="-600" width="60" height="30" as="geometry" />
        </mxCell>
        <mxCell id="auE9GAFZoPiCodi1esT8-15" value="&lt;font style=&quot;font-size: 14px;&quot;&gt;loginAttendee&lt;/font&gt;&lt;font style=&quot;font-size: 16px;&quot;&gt;()&lt;/font&gt;" style="text;html=1;align=center;verticalAlign=middle;resizable=0;points=[];autosize=1;strokeColor=none;fillColor=default;rotation=0;" parent="1" vertex="1">
          <mxGeometry x="1372" y="-80" width="120" height="30" as="geometry" />
        </mxCell>
        <mxCell id="auE9GAFZoPiCodi1esT8-18" value="&lt;font style=&quot;font-size: 16px;&quot;&gt;Forward Results&lt;/font&gt;" style="text;html=1;align=center;verticalAlign=middle;resizable=0;points=[];autosize=1;strokeColor=none;fillColor=default;rotation=0;fillStyle=solid;fontSize=14;" parent="1" vertex="1">
          <mxGeometry x="1180" y="-390" width="140" height="30" as="geometry" />
        </mxCell>
        <mxCell id="auE9GAFZoPiCodi1esT8-20" value="&lt;font style=&quot;font-size: 16px;&quot;&gt;Sends Instructions&lt;/font&gt;" style="text;html=1;align=center;verticalAlign=middle;resizable=0;points=[];autosize=1;strokeColor=none;fillColor=default;rotation=0;fillStyle=solid;fontSize=14;" parent="1" vertex="1">
          <mxGeometry x="1760" y="-180" width="160" height="30" as="geometry" />
        </mxCell>
        <mxCell id="auE9GAFZoPiCodi1esT8-22" value="" style="shape=curlyBracket;whiteSpace=wrap;html=1;rounded=1;flipH=1;labelPosition=right;verticalLabelPosition=middle;align=left;verticalAlign=middle;strokeWidth=1.5;" parent="1" vertex="1">
          <mxGeometry x="2260" y="-160" width="20" height="240" as="geometry" />
        </mxCell>
        <mxCell id="auE9GAFZoPiCodi1esT8-23" style="rounded=0;orthogonalLoop=1;jettySize=auto;html=1;exitX=-0.002;exitY=0.821;exitDx=0;exitDy=0;strokeWidth=2;dashed=1;elbow=vertical;entryX=1;entryY=0.75;entryDx=0;entryDy=0;exitPerimeter=0;edgeStyle=elbowEdgeStyle;" parent="1" source="bMvW-eNj-eisWk0p-jTL-17" target="bMvW-eNj-eisWk0p-jTL-32" edge="1">
          <mxGeometry relative="1" as="geometry">
            <mxPoint x="1760" y="-40" as="sourcePoint" />
            <mxPoint x="1922" y="-40" as="targetPoint" />
          </mxGeometry>
        </mxCell>
        <mxCell id="auE9GAFZoPiCodi1esT8-24" value="&lt;font style=&quot;font-size: 16px;&quot;&gt;Receives Results&lt;/font&gt;" style="text;html=1;align=center;verticalAlign=middle;resizable=0;points=[];autosize=1;strokeColor=none;fillColor=default;rotation=0;fillStyle=solid;fontSize=14;" parent="1" vertex="1">
          <mxGeometry x="1765" y="-19" width="150" height="30" as="geometry" />
        </mxCell>
        <mxCell id="auE9GAFZoPiCodi1esT8-25" value="&lt;font style=&quot;font-size: 16px;&quot;&gt;Sends Formatted Instruction&lt;/font&gt;" style="text;html=1;align=center;verticalAlign=middle;resizable=0;points=[];autosize=1;strokeColor=none;fillColor=default;rotation=0;fillStyle=solid;fontSize=14;" parent="1" vertex="1">
          <mxGeometry x="1972" y="-204" width="220" height="30" as="geometry" />
        </mxCell>
        <mxCell id="auE9GAFZoPiCodi1esT8-26" style="edgeStyle=orthogonalEdgeStyle;rounded=0;orthogonalLoop=1;jettySize=auto;html=1;exitX=0.5;exitY=1;exitDx=0;exitDy=0;" parent="1" source="pD3apOntTS_DSW2_lvJ2-11" target="pD3apOntTS_DSW2_lvJ2-11" edge="1">
          <mxGeometry relative="1" as="geometry" />
        </mxCell>
        <mxCell id="auE9GAFZoPiCodi1esT8-27" style="rounded=0;orthogonalLoop=1;jettySize=auto;html=1;exitX=0.367;exitY=-0.001;exitDx=0;exitDy=0;strokeWidth=2;dashed=1;entryX=0.367;entryY=1.003;entryDx=0;entryDy=0;edgeStyle=elbowEdgeStyle;exitPerimeter=0;entryPerimeter=0;" parent="1" edge="1">
          <mxGeometry relative="1" as="geometry">
            <mxPoint x="2060.0099999999998" y="-370.4709999999999" as="sourcePoint" />
            <mxPoint x="2060.0099999999998" y="-469.70000000000005" as="targetPoint" />
          </mxGeometry>
        </mxCell>
        <mxCell id="auE9GAFZoPiCodi1esT8-31" value="&lt;font style=&quot;font-size: 16px;&quot;&gt;&lt;b&gt;Level 1 Service&lt;/b&gt;&lt;/font&gt;&lt;div&gt;&lt;span style=&quot;font-size: 16px;&quot;&gt;Process instruction&lt;/span&gt;&lt;/div&gt;&lt;div&gt;&lt;span style=&quot;font-size: 16px;&quot;&gt;into DML instructions&lt;/span&gt;&lt;/div&gt;" style="text;html=1;align=center;verticalAlign=middle;resizable=0;points=[];autosize=1;strokeColor=none;fillColor=default;rotation=0;fillStyle=solid;fontSize=14;" parent="1" vertex="1">
          <mxGeometry x="2290" y="-70" width="170" height="70" as="geometry" />
        </mxCell>
        <mxCell id="auE9GAFZoPiCodi1esT8-32" value="&lt;font style=&quot;font-size: 16px;&quot;&gt;&lt;b&gt;Level 2 Service&lt;/b&gt;&lt;/font&gt;&lt;div&gt;&lt;span style=&quot;font-size: 16px;&quot;&gt;Process DML instruction&lt;/span&gt;&lt;/div&gt;&lt;div&gt;&lt;span style=&quot;font-size: 16px;&quot;&gt;into raw SQL instructions&lt;/span&gt;&lt;/div&gt;" style="text;html=1;align=center;verticalAlign=middle;resizable=0;points=[];autosize=1;strokeColor=none;fillColor=default;rotation=0;fillStyle=solid;fontSize=14;" parent="1" vertex="1">
          <mxGeometry x="2290" y="-310" width="200" height="70" as="geometry" />
        </mxCell>
        <mxCell id="auE9GAFZoPiCodi1esT8-33" value="" style="shape=curlyBracket;whiteSpace=wrap;html=1;rounded=1;flipH=1;labelPosition=right;verticalLabelPosition=middle;align=left;verticalAlign=middle;strokeWidth=1.5;" parent="1" vertex="1">
          <mxGeometry x="2260" y="-350" width="20" height="140" as="geometry" />
        </mxCell>
        <mxCell id="auE9GAFZoPiCodi1esT8-35" value="1" style="ellipse;whiteSpace=wrap;html=1;aspect=fixed;rotation=0;gradientColor=#223548;strokeColor=none;gradientDirection=east;fillColor=#5b738b;rounded=0;pointerEvents=0;fontFamily=Helvetica;fontSize=16;fontColor=#FFFFFF;spacingTop=4;spacingBottom=4;spacingLeft=4;spacingRight=4;points=[];fontStyle=1" parent="1" vertex="1">
          <mxGeometry x="1825" y="-214" width="30" height="30" as="geometry" />
        </mxCell>
        <mxCell id="auE9GAFZoPiCodi1esT8-36" value="4" style="ellipse;whiteSpace=wrap;html=1;aspect=fixed;rotation=0;gradientColor=#223548;strokeColor=none;gradientDirection=east;fillColor=#5b738b;rounded=0;pointerEvents=0;fontFamily=Helvetica;fontSize=16;fontColor=#FFFFFF;spacingTop=4;spacingBottom=4;spacingLeft=4;spacingRight=4;points=[];fontStyle=1" parent="1" vertex="1">
          <mxGeometry x="1825" y="-50" width="30" height="30" as="geometry" />
        </mxCell>
        <mxCell id="auE9GAFZoPiCodi1esT8-37" value="2" style="ellipse;whiteSpace=wrap;html=1;aspect=fixed;rotation=0;gradientColor=#223548;strokeColor=none;gradientDirection=east;fillColor=#5b738b;rounded=0;pointerEvents=0;fontFamily=Helvetica;fontSize=16;fontColor=#FFFFFF;spacingTop=4;spacingBottom=4;spacingLeft=4;spacingRight=4;points=[];fontStyle=1" parent="1" vertex="1">
          <mxGeometry x="2191" y="-204" width="30" height="30" as="geometry" />
        </mxCell>
        <mxCell id="auE9GAFZoPiCodi1esT8-38" style="rounded=0;orthogonalLoop=1;jettySize=auto;html=1;exitX=0.546;exitY=1;exitDx=0;exitDy=0;strokeWidth=2;dashed=1;edgeStyle=elbowEdgeStyle;exitPerimeter=0;" parent="1" source="auE9GAFZoPiCodi1esT8-11" edge="1">
          <mxGeometry relative="1" as="geometry">
            <mxPoint x="2100" y="-370" as="sourcePoint" />
            <mxPoint x="2099" y="-372" as="targetPoint" />
          </mxGeometry>
        </mxCell>
        <mxCell id="auE9GAFZoPiCodi1esT8-28" value="&lt;span style=&quot;font-size: 16px;&quot;&gt;Sends SQL&lt;/span&gt;&lt;div&gt;&lt;span style=&quot;font-size: 16px;&quot;&gt;Receives ResultSet&lt;/span&gt;&lt;/div&gt;" style="text;html=1;align=center;verticalAlign=middle;resizable=0;points=[];autosize=1;strokeColor=none;fillColor=default;rotation=0;fillStyle=solid;fontSize=14;" parent="1" vertex="1">
          <mxGeometry x="2005" y="-450" width="160" height="50" as="geometry" />
        </mxCell>
        <mxCell id="auE9GAFZoPiCodi1esT8-40" value="3" style="ellipse;whiteSpace=wrap;html=1;aspect=fixed;rotation=0;gradientColor=#223548;strokeColor=none;gradientDirection=east;fillColor=#5b738b;rounded=0;pointerEvents=0;fontFamily=Helvetica;fontSize=16;fontColor=#FFFFFF;spacingTop=4;spacingBottom=4;spacingLeft=4;spacingRight=4;points=[];fontStyle=1" parent="1" vertex="1">
          <mxGeometry x="2169" y="-440" width="30" height="30" as="geometry" />
        </mxCell>
        <mxCell id="auE9GAFZoPiCodi1esT8-41" value="5" style="ellipse;whiteSpace=wrap;html=1;aspect=fixed;rotation=0;gradientColor=#223548;strokeColor=none;gradientDirection=east;fillColor=#5b738b;rounded=0;pointerEvents=0;fontFamily=Helvetica;fontSize=16;fontColor=#FFFFFF;spacingTop=4;spacingBottom=4;spacingLeft=4;spacingRight=4;points=[];fontStyle=1" parent="1" vertex="1">
          <mxGeometry x="1320" y="-390" width="30" height="30" as="geometry" />
        </mxCell>
      </root>
    </mxGraphModel>
  </diagram>
</mxfile>
